<svg xmlns="http://www.w3.org/2000/svg" xmlns:xlink="http://www.w3.org/1999/xlink" width="512" zoomAndPan="magnify" viewBox="0 0 384 383.999986" height="512" preserveAspectRatio="xMidYMid meet" version="1.0"><defs><clipPath id="7995db638a"><path d="M 185 127 L 274 127 L 274 216 L 185 216 Z M 185 127 " clip-rule="nonzero"/></clipPath><clipPath id="9f26a4cdd0"><path d="M 185.410156 204.253906 L 262.007812 127.65625 L 273.269531 138.921875 L 196.675781 215.515625 Z M 185.410156 204.253906 " clip-rule="nonzero"/></clipPath><clipPath id="10bce2f1ee"><path d="M 185.410156 204.253906 L 261.972656 127.691406 L 273.234375 138.957031 L 196.675781 215.515625 Z M 185.410156 204.253906 " clip-rule="nonzero"/></clipPath></defs><path fill="#fdd247" d="M 199.863281 26.320312 L 234.804688 13.898438 C 244.851562 10.328125 256.042969 13.964844 262.066406 22.753906 L 283.035156 53.34375 C 286.09375 57.800781 290.59375 61.070312 295.773438 62.601562 L 331.347656 73.089844 C 341.570312 76.101562 348.488281 85.621094 348.195312 96.273438 L 347.175781 133.347656 C 347.027344 138.75 348.746094 144.042969 352.042969 148.324219 L 374.652344 177.714844 C 381.15625 186.167969 381.15625 197.933594 374.652344 206.378906 L 352.042969 235.773438 C 348.746094 240.058594 347.027344 245.34375 347.175781 250.75 L 348.195312 287.820312 C 348.488281 298.476562 341.570312 307.996094 331.347656 311.011719 L 295.773438 321.496094 C 290.59375 323.027344 286.09375 326.292969 283.035156 330.753906 L 262.066406 361.34375 C 256.042969 370.132812 244.851562 373.773438 234.804688 370.199219 L 199.863281 357.777344 C 194.773438 355.964844 189.214844 355.964844 184.117188 357.777344 L 149.175781 370.199219 C 139.132812 373.773438 127.941406 370.132812 121.917969 361.34375 L 100.953125 330.753906 C 97.894531 326.292969 93.394531 323.027344 88.210938 321.496094 L 52.640625 311.011719 C 42.414062 307.996094 35.5 298.476562 35.792969 287.820312 L 36.8125 250.75 C 36.957031 245.34375 35.242188 240.058594 31.945312 235.773438 L 9.328125 206.378906 C 2.828125 197.933594 2.828125 186.167969 9.328125 177.714844 L 31.945312 148.324219 C 35.242188 144.042969 36.957031 138.75 36.8125 133.347656 L 35.792969 96.273438 C 35.5 85.621094 42.414062 76.101562 52.640625 73.089844 L 88.210938 62.601562 C 93.394531 61.070312 97.894531 57.800781 100.953125 53.34375 L 121.917969 22.753906 C 127.941406 13.964844 139.132812 10.328125 149.175781 13.898438 L 184.117188 26.320312 C 189.214844 28.132812 194.773438 28.132812 199.863281 26.320312 " fill-opacity="1" fill-rule="nonzero"/><path fill="#ffffff" d="M 296.738281 136.800781 L 267.175781 107.234375 L 156.675781 217.730469 L 116.8125 177.867188 L 87.246094 207.429688 L 115.554688 235.734375 L 115.554688 235.738281 L 156.675781 276.863281 L 197.804688 235.738281 L 296.738281 136.800781 " fill-opacity="1" fill-rule="nonzero"/><g clip-path="url(#7995db638a)"><g clip-path="url(#9f26a4cdd0)"><g clip-path="url(#10bce2f1ee)"><path fill="#ffffff" d="M 185.410156 204.253906 L 261.964844 127.703125 L 273.226562 138.964844 L 196.675781 215.515625 Z M 185.410156 204.253906 " fill-opacity="1" fill-rule="nonzero"/></g></g></g></svg>